<?xml version="1.0" encoding="UTF-8" standalone="no"?>
<!DOCTYPE svg PUBLIC "-//W3C//DTD SVG 1.1//EN" "http://www.w3.org/Graphics/SVG/1.1/DTD/svg11.dtd">
<svg xmlns="http://www.w3.org/2000/svg" version="1.1" viewBox="0.00 0.00 1545.00 1514.00">
<g stroke-width="2.00" fill="none" stroke-linecap="butt">
<path stroke="#a855f7" d="
  M 267.38 216.63
  Q 246.77 235.40 224.77 258.60
  C 218.07 265.67 211.26 273.89 206.00 279.50
  C 201.19 284.64 197.80 289.29 193.65 294.08
  C 189.01 299.44 184.01 306.65 178.72 312.88
  Q 176.59 315.39 172.77 320.53
  Q 158.00 340.42 145.53 359.14
  Q 141.31 365.48 139.31 369.08
  C 134.55 377.65 129.00 385.37 124.17 394.17
  Q 121.77 398.53 111.52 417.29
  C 106.59 426.33 102.73 435.19 98.69 443.02
  C 92.03 455.97 85.90 471.32 80.39 484.12
  C 74.95 496.73 69.59 513.91 65.98 523.81
  C 61.35 536.51 57.22 550.76 54.63 561.13
  C 51.11 575.19 47.61 587.38 44.76 600.69
  Q 39.57 624.87 36.81 645.10
  C 34.67 660.76 32.46 675.02 31.04 691.75
  Q 30.04 703.44 29.06 724.25
  C 25.77 793.86 34.13 863.12 51.55 930.92
  Q 66.83 990.34 89.10 1040.68
  C 93.91 1051.54 96.02 1055.65 101.18 1066.71
  Q 105.63 1076.22 110.89 1085.88
  Q 126.69 1114.88 128.06 1117.21
  Q 136.89 1132.22 150.06 1152.32
  Q 161.26 1169.42 173.89 1186.14
  Q 217.26 1243.56 269.88 1290.63
  Q 289.44 1308.13 304.65 1320.10
  Q 347.30 1353.65 395.97 1381.61
  C 402.80 1385.53 409.62 1388.79 416.44 1392.73
  Q 421.93 1395.90 432.03 1400.72
  Q 451.94 1410.22 456.45 1412.37
  Q 475.99 1421.68 499.39 1430.35
  C 513.73 1435.66 526.55 1440.43 537.69 1443.86
  Q 585.82 1458.73 633.94 1466.84
  Q 641.82 1468.17 670.06 1472.33
  Q 673.86 1472.89 677.98 1473.15
  C 684.55 1473.57 691.49 1474.67 697.78 1475.08
  Q 724.60 1476.81 738.50 1477.19
  Q 788.44 1478.58 838.47 1472.60
  C 864.65 1469.48 894.74 1464.34 923.33 1456.91
  Q 955.14 1448.66 961.64 1446.65
  Q 988.47 1438.39 1014.85 1428.24
  Q 1023.42 1424.94 1031.16 1421.59
  Q 1046.53 1414.93 1047.34 1414.60
  C 1055.29 1411.33 1067.16 1405.09 1073.43 1402.36
  Q 1080.04 1399.48 1092.63 1392.49
  Q 1101.67 1387.47 1113.06 1381.32
  Q 1117.20 1379.09 1129.11 1371.54
  C 1134.54 1368.11 1140.46 1365.10 1146.17 1361.25
  C 1156.81 1354.08 1170.08 1345.45 1181.77 1336.62
  Q 1203.92 1319.89 1206.40 1317.90
  Q 1267.64 1268.71 1317.30 1208.13
  C 1321.49 1203.02 1324.72 1197.85 1328.73 1193.34
  Q 1332.53 1189.06 1337.41 1182.34
  Q 1357.29 1154.91 1368.36 1137.13
  Q 1372.20 1130.97 1381.12 1115.84
  C 1385.82 1107.86 1389.24 1100.73 1393.51 1093.51
  Q 1396.76 1088.01 1402.41 1076.58
  Q 1415.65 1049.82 1426.73 1023.42
  Q 1431.05 1013.11 1435.74 999.84
  Q 1442.82 979.82 1443.99 975.99
  Q 1451.65 951.02 1459.99 918.50
  Q 1463.43 905.08 1467.26 884.01
  Q 1472.17 856.94 1475.19 831.75
  Q 1482.23 773.04 1478.71 716.26
  Q 1475.04 656.79 1462.86 598.69
  Q 1460.19 585.91 1455.35 568.19
  Q 1448.99 544.89 1446.76 538.00
  C 1439.23 514.65 1430.41 489.08 1419.56 464.89
  Q 1399.56 420.29 1380.61 388.38
  Q 1364.57 361.37 1353.11 344.63
  Q 1345.69 333.80 1330.28 313.42
  Q 1317.76 296.87 1305.98 283.36
  Q 1279.16 252.60 1258.37 232.86
  Q 1227.14 203.22 1203.46 184.32
  Q 1175.33 161.88 1142.36 140.65
  Q 1098.43 112.36 1051.14 90.90
  Q 1042.33 86.91 1037.23 84.86
  C 1024.94 79.93 1013.78 74.79 1001.99 70.61
  Q 946.97 51.15 897.09 40.95
  Q 847.02 30.72 800.24 28.14
  Q 765.40 26.22 735.75 27.00
  Q 692.38 28.15 648.50 34.46
  Q 615.13 39.26 584.68 46.89
  Q 551.35 55.25 527.08 63.33
  Q 522.65 64.81 497.21 74.12
  C 487.85 77.55 478.19 82.42 469.13 85.84
  C 457.36 90.28 447.71 95.51 435.13 101.32
  Q 429.48 103.93 421.38 108.28
  Q 393.10 123.45 365.25 141.27
  C 363.10 142.64 360.71 144.67 358.84 145.85
  Q 340.29 157.52 329.10 166.10
  C 314.91 176.97 299.91 188.01 286.99 199.23
  Q 275.62 209.12 267.38 216.63"
/>
<path stroke="#a855f7" d="
  M 785.86 100.13
  Q 761.86 99.30 742.26 99.53
  Q 687.46 100.17 631.68 110.27
  C 620.66 112.27 608.83 115.51 598.94 117.75
  Q 587.01 120.44 574.58 124.16
  Q 546.96 132.41 531.14 138.16
  Q 521.15 141.78 518.14 143.14
  C 508.61 147.42 497.83 151.52 488.40 155.81
  Q 488.23 155.89 468.29 165.40
  Q 457.15 170.72 448.48 175.57
  Q 429.93 185.94 425.55 188.56
  Q 392.62 208.23 358.55 234.07
  Q 354.85 236.88 347.77 242.77
  Q 344.37 245.60 337.05 251.57
  Q 324.99 261.40 304.62 280.62
  Q 279.47 304.34 257.71 329.80
  C 252.34 336.08 248.44 341.49 243.59 347.27
  Q 239.61 352.03 233.27 360.57
  Q 225.01 371.71 220.31 378.22
  Q 218.02 381.39 216.82 383.37
  C 214.01 388.00 210.57 392.02 207.95 396.17
  Q 195.09 416.57 192.16 421.44
  Q 189.38 426.06 176.20 449.88
  Q 171.08 459.14 167.58 466.73
  C 164.08 474.34 157.65 486.52 153.48 496.87
  Q 150.46 504.36 147.94 510.13
  Q 144.12 518.87 140.15 530.16
  Q 122.81 579.52 113.89 624.04
  Q 104.74 669.71 101.70 733.00
  Q 100.72 753.25 101.71 773.25
  C 103.39 807.48 106.04 840.70 112.23 871.82
  Q 116.11 891.30 121.58 913.97
  Q 124.88 927.62 129.14 940.87
  Q 141.13 978.23 155.64 1012.13
  C 159.13 1020.29 164.61 1030.88 169.32 1040.93
  Q 170.32 1043.06 175.06 1052.26
  Q 182.65 1067.03 187.25 1074.89
  Q 204.72 1104.72 218.52 1124.10
  C 230.12 1140.40 241.23 1154.01 252.32 1168.09
  C 255.82 1172.54 259.63 1176.37 262.82 1180.27
  Q 267.18 1185.62 270.50 1189.26
  Q 297.27 1218.59 327.33 1244.54
  C 335.79 1251.84 343.63 1257.90 353.03 1265.50
  Q 365.54 1275.60 384.04 1288.68
  Q 393.51 1295.38 405.88 1302.91
  C 425.16 1314.66 437.32 1321.60 457.40 1332.58
  C 462.35 1335.29 466.80 1337.08 471.43 1339.50
  Q 476.09 1341.93 481.96 1344.58
  Q 509.28 1356.91 529.51 1364.42
  Q 569.26 1379.18 618.36 1390.37
  Q 632.57 1393.61 648.76 1396.18
  Q 690.88 1402.88 732.49 1404.59
  Q 784.25 1406.73 835.16 1399.92
  Q 851.23 1397.77 851.58 1397.74
  Q 856.91 1397.17 867.93 1395.09
  Q 891.67 1390.61 918.01 1383.76
  C 961.95 1372.33 1005.46 1355.20 1046.28 1335.26
  Q 1052.00 1332.47 1057.17 1329.63
  Q 1085.33 1314.19 1113.54 1296.02
  Q 1124.84 1288.74 1151.10 1269.14
  C 1157.00 1264.73 1161.86 1260.27 1167.86 1255.65
  Q 1173.21 1251.53 1180.33 1245.45
  Q 1209.47 1220.59 1234.75 1192.96
  C 1239.33 1187.95 1243.81 1182.21 1247.74 1178.15
  Q 1251.13 1174.66 1257.12 1166.77
  Q 1258.27 1165.26 1268.88 1152.13
  Q 1285.15 1132.00 1301.58 1106.60
  C 1305.35 1100.78 1308.86 1093.92 1312.96 1088.21
  Q 1315.31 1084.92 1321.79 1073.30
  Q 1336.12 1047.56 1340.70 1037.08
  Q 1342.56 1032.83 1346.48 1025.58
  Q 1348.57 1021.72 1351.87 1013.87
  Q 1358.57 997.94 1359.60 995.58
  C 1366.08 980.76 1369.29 969.78 1375.83 950.41
  C 1383.17 928.71 1387.95 907.68 1393.29 884.70
  Q 1396.08 872.68 1397.90 860.95
  Q 1401.27 839.15 1403.96 811.76
  Q 1407.33 777.36 1406.53 744.52
  Q 1405.56 704.98 1399.59 655.44
  C 1396.83 632.51 1390.10 604.89 1386.11 588.89
  C 1381.60 570.81 1376.30 555.01 1369.39 534.34
  Q 1365.48 522.66 1361.27 512.27
  Q 1349.46 483.11 1333.50 451.85
  C 1329.91 444.84 1325.92 438.33 1321.06 429.67
  Q 1314.33 417.68 1299.61 395.39
  Q 1299.40 395.06 1286.95 377.28
  Q 1271.53 355.25 1251.74 331.52
  Q 1219.72 293.13 1174.55 254.29
  Q 1131.18 217.01 1081.22 187.70
  C 1075.37 184.27 1070.29 181.90 1064.59 178.40
  Q 1059.88 175.50 1053.34 172.18
  Q 1037.96 164.36 1025.28 158.36
  C 1014.80 153.40 1005.36 149.76 995.22 145.35
  Q 983.75 140.36 972.33 136.43
  Q 939.71 125.22 920.95 120.60
  Q 892.90 113.68 882.66 111.63
  Q 834.93 102.09 785.58 100.45
  A 0.19 0.19 0.0 0 1 785.57 100.07
  Q 785.71 100.06 785.86 100.13"
/>
<path stroke="#a855f7" d="
  M 419.95 735.60
  C 412.58 740.50 406.40 745.58 397.60 753.02
  C 380.91 767.12 366.94 783.64 355.45 802.51
  Q 348.50 813.92 344.09 825.01
  C 338.61 838.79 333.29 853.13 330.20 868.45
  Q 321.69 910.69 323.89 954.24
  Q 325.54 986.79 332.27 1013.86
  Q 338.79 1040.12 349.57 1061.30
  Q 358.60 1079.05 373.93 1096.59
  Q 384.81 1109.02 392.47 1115.63
  C 398.67 1120.98 405.76 1125.77 414.79 1131.79
  Q 425.26 1138.77 431.80 1141.44
  C 442.38 1145.76 448.57 1148.49 458.16 1151.50
  Q 492.63 1162.30 528.53 1164.92
  Q 543.39 1166.01 563.26 1166.30
  Q 607.17 1166.93 642.25 1166.26
  Q 662.48 1165.87 683.23 1161.00
  C 698.56 1157.41 713.09 1149.30 724.87 1140.11
  Q 728.55 1137.24 731.31 1133.83
  Q 732.41 1132.47 732.45 1130.03
  Q 732.85 1100.80 732.83 1088.00
  Q 732.66 965.91 732.69 381.54
  C 732.69 377.61 733.31 373.27 730.55 370.46
  Q 719.50 359.19 705.09 352.18
  Q 691.21 345.42 677.26 342.44
  Q 653.52 337.38 624.24 337.29
  C 596.69 337.22 569.73 338.44 543.00 342.52
  Q 509.34 347.66 480.89 362.35
  Q 478.80 363.43 465.65 371.93
  Q 460.25 375.42 454.83 380.15
  Q 445.95 387.89 444.68 389.18
  Q 429.26 404.81 417.81 423.63
  C 408.73 438.56 401.81 456.15 396.97 472.70
  Q 381.45 525.83 382.12 581.25
  Q 382.64 623.90 391.81 663.24
  Q 394.75 675.86 397.60 684.36
  C 403.45 701.81 410.30 718.66 420.28 734.04
  A 1.13 1.13 0.0 0 1 419.95 735.60"
/>
<path stroke="#a855f7" d="
  M 1088.42 733.76
  C 1099.39 716.00 1108.64 695.60 1113.68 675.62
  C 1117.89 658.94 1121.27 641.53 1123.60 622.73
  Q 1127.60 590.34 1125.57 557.47
  Q 1124.36 537.98 1123.30 530.13
  Q 1119.32 500.76 1111.10 472.59
  Q 1104.12 448.67 1093.41 428.80
  Q 1078.71 401.50 1053.78 379.98
  Q 1048.82 375.68 1041.62 370.90
  Q 1032.46 364.82 1028.69 362.84
  Q 1001.41 348.46 970.91 343.15
  Q 956.29 340.61 948.38 339.87
  Q 910.96 336.37 874.25 337.57
  Q 863.31 337.92 841.60 340.82
  Q 810.41 344.97 786.15 362.86
  C 783.60 364.74 776.09 370.36 775.89 373.89
  Q 775.60 379.09 775.60 381.75
  C 776.09 618.91 775.65 865.16 775.72 1077.25
  Q 775.74 1110.28 776.09 1129.25
  C 776.14 1131.89 776.89 1132.97 778.72 1134.87
  C 785.76 1142.21 795.98 1148.55 804.21 1152.83
  Q 812.18 1156.97 822.84 1159.94
  Q 843.28 1165.64 862.50 1166.13
  Q 889.32 1166.81 927.69 1166.64
  Q 953.92 1166.52 977.75 1165.09
  Q 1015.70 1162.80 1051.68 1151.24
  Q 1058.39 1149.08 1065.12 1146.36
  Q 1074.60 1142.53 1078.28 1140.77
  Q 1094.52 1133.03 1110.33 1120.34
  Q 1136.07 1099.68 1153.09 1071.72
  Q 1160.85 1058.99 1167.08 1042.76
  Q 1173.66 1025.64 1176.77 1012.05
  C 1183.09 984.50 1185.16 957.34 1184.71 929.77
  Q 1184.27 903.05 1179.32 875.41
  Q 1176.42 859.20 1171.33 843.90
  Q 1166.23 828.61 1159.25 813.74
  Q 1153.56 801.61 1143.35 787.95
  C 1134.53 776.14 1126.40 766.54 1116.27 757.73
  Q 1102.61 745.84 1088.79 735.66
  A 1.43 1.43 0.0 0 1 1088.42 733.76"
/>
<path stroke="#a855f7" d="
  M 671.90 726.15
  A 0.49 0.49 0.0 0 0 672.39 725.66
  Q 672.49 571.93 672.29 452.25
  Q 672.28 444.29 668.79 435.24
  C 666.66 429.73 662.59 425.86 657.44 424.05
  Q 648.35 420.85 638.49 420.84
  Q 601.89 420.78 592.63 420.65
  C 573.68 420.39 557.38 421.45 541.45 425.20
  C 526.65 428.68 511.19 438.19 501.40 450.91
  Q 495.39 458.72 492.24 466.02
  C 486.02 480.47 482.36 495.56 479.87 512.06
  Q 477.65 526.82 476.77 535.25
  C 473.36 567.82 473.71 600.54 478.17 633.04
  Q 481.43 656.75 489.34 679.44
  Q 494.00 692.82 503.74 704.00
  C 509.08 710.12 514.84 713.61 522.17 717.29
  Q 527.80 720.12 533.27 721.61
  Q 546.00 725.07 554.37 725.59
  C 566.09 726.31 589.78 725.67 607.56 726.21
  C 621.50 726.63 635.38 725.97 648.55 726.09
  Q 658.72 726.18 671.90 726.15"
/>
<path stroke="#a855f7" d="
  M 424.34 912.94
  Q 423.64 924.73 423.39 931.23
  Q 422.15 963.55 428.08 993.70
  C 433.61 1021.80 446.23 1046.31 469.87 1062.92
  C 483.19 1072.28 498.65 1077.50 515.02 1080.16
  Q 517.42 1080.55 529.96 1082.07
  C 540.24 1083.32 554.11 1083.26 562.00 1083.25
  Q 630.74 1083.16 642.50 1083.10
  Q 649.62 1083.07 657.33 1080.34
  Q 665.34 1077.50 668.45 1069.69
  C 672.50 1059.47 672.40 1050.65 672.40 1037.11
  Q 672.46 875.20 672.46 799.75
  Q 672.46 779.59 672.45 779.21
  A 0.65 0.65 0.0 0 0 671.92 778.57
  Q 670.28 778.25 668.00 778.27
  Q 634.42 778.57 560.75 778.34
  Q 542.22 778.28 522.98 781.42
  C 515.12 782.70 505.04 785.46 498.70 787.70
  Q 480.58 794.09 465.69 806.48
  C 452.33 817.60 442.26 833.90 436.60 849.84
  C 432.86 860.38 429.36 872.43 427.71 884.30
  Q 426.89 890.17 425.92 896.57
  Q 425.12 901.86 424.58 914.59
  A 0.01 0.01 0.0 0 1 424.56 914.59
  Q 424.55 914.57 424.54 914.56
  A 0.16 0.08 46.7 0 1 424.50 914.43
  Q 424.74 913.63 424.55 912.92
  A 0.11 0.11 0.0 0 0 424.34 912.94"
/>
<path stroke="#a855f7" d="
  M 1033.25 597.52
  Q 1035.73 550.24 1027.56 504.57
  Q 1024.65 488.24 1019.18 473.08
  Q 1014.37 459.75 1006.07 449.61
  Q 997.73 439.43 987.04 433.19
  Q 976.05 426.77 963.49 424.31
  Q 945.60 420.81 931.99 420.86
  Q 893.22 420.99 869.76 420.84
  Q 859.45 420.77 850.22 424.70
  C 842.87 427.83 839.59 433.86 837.60 441.31
  C 835.42 449.46 835.68 455.05 835.67 465.29
  Q 835.65 519.66 835.70 725.13
  A 0.77 0.76 -89.6 0 0 836.45 725.90
  C 848.68 726.13 860.36 725.75 873.11 726.00
  Q 900.51 726.53 922.46 726.10
  Q 932.28 725.90 939.05 725.89
  Q 952.67 725.87 955.63 725.60
  Q 967.87 724.48 980.92 720.12
  C 990.27 716.99 1000.07 710.06 1006.80 701.47
  Q 1012.74 693.88 1014.05 691.30
  Q 1018.01 683.50 1019.71 678.72
  Q 1026.93 658.39 1029.43 637.21
  C 1030.70 626.41 1032.27 615.63 1032.72 606.34
  Q 1032.94 601.89 1033.09 600.17
  Q 1033.14 599.70 1033.25 597.52"
/>
<path stroke="#a855f7" d="
  M 1083.14 908.01
  C 1081.80 887.77 1078.38 867.32 1071.42 848.57
  C 1061.55 821.98 1041.96 799.94 1015.09 789.69
  C 992.99 781.27 969.48 778.33 946.23 778.38
  Q 874.30 778.52 835.89 778.36
  A 0.43 0.42 -0.7 0 0 835.46 778.79
  Q 835.60 794.95 835.61 796.25
  Q 835.73 996.62 835.85 1049.73
  Q 835.87 1058.62 839.81 1068.39
  C 842.32 1074.61 845.47 1077.48 851.39 1079.95
  Q 858.74 1083.01 866.23 1083.11
  Q 900.51 1083.57 948.00 1083.21
  Q 957.86 1083.14 964.85 1082.80
  C 976.39 1082.24 986.79 1081.53 995.32 1080.09
  Q 1003.56 1078.70 1014.13 1075.35
  Q 1027.82 1071.01 1038.97 1062.66
  C 1051.27 1053.46 1060.21 1044.53 1067.17 1031.34
  Q 1077.25 1012.22 1080.66 991.74
  Q 1087.50 950.73 1083.37 908.19
  A 0.06 0.06 0.0 0 0 1083.31 908.13
  Q 1083.30 908.13 1083.26 908.14
  A 0.13 0.09 81.4 0 1 1083.14 908.01"
/>
</g>
<path fill="none" d="
  M 1545.00 0.00
  L 1545.00 1514.00
  L 0.00 1514.00
  L 0.00 0.00
  L 1545.00 0.00
  Z
  M 267.38 216.63
  Q 246.77 235.40 224.77 258.60
  C 218.07 265.67 211.26 273.89 206.00 279.50
  C 201.19 284.64 197.80 289.29 193.65 294.08
  C 189.01 299.44 184.01 306.65 178.72 312.88
  Q 176.59 315.39 172.77 320.53
  Q 158.00 340.42 145.53 359.14
  Q 141.31 365.48 139.31 369.08
  C 134.55 377.65 129.00 385.37 124.17 394.17
  Q 121.77 398.53 111.52 417.29
  C 106.59 426.33 102.73 435.19 98.69 443.02
  C 92.03 455.97 85.90 471.32 80.39 484.12
  C 74.95 496.73 69.59 513.91 65.98 523.81
  C 61.35 536.51 57.22 550.76 54.63 561.13
  C 51.11 575.19 47.61 587.38 44.76 600.69
  Q 39.57 624.87 36.81 645.10
  C 34.67 660.76 32.46 675.02 31.04 691.75
  Q 30.04 703.44 29.06 724.25
  C 25.77 793.86 34.13 863.12 51.55 930.92
  Q 66.83 990.34 89.10 1040.68
  C 93.91 1051.54 96.02 1055.65 101.18 1066.71
  Q 105.63 1076.22 110.89 1085.88
  Q 126.69 1114.88 128.06 1117.21
  Q 136.89 1132.22 150.06 1152.32
  Q 161.26 1169.42 173.89 1186.14
  Q 217.26 1243.56 269.88 1290.63
  Q 289.44 1308.13 304.65 1320.10
  Q 347.30 1353.65 395.97 1381.61
  C 402.80 1385.53 409.62 1388.79 416.44 1392.73
  Q 421.93 1395.90 432.03 1400.72
  Q 451.94 1410.22 456.45 1412.37
  Q 475.99 1421.68 499.39 1430.35
  C 513.73 1435.66 526.55 1440.43 537.69 1443.86
  Q 585.82 1458.73 633.94 1466.84
  Q 641.82 1468.17 670.06 1472.33
  Q 673.86 1472.89 677.98 1473.15
  C 684.55 1473.57 691.49 1474.67 697.78 1475.08
  Q 724.60 1476.81 738.50 1477.19
  Q 788.44 1478.58 838.47 1472.60
  C 864.65 1469.48 894.74 1464.34 923.33 1456.91
  Q 955.14 1448.66 961.64 1446.65
  Q 988.47 1438.39 1014.85 1428.24
  Q 1023.42 1424.94 1031.16 1421.59
  Q 1046.53 1414.93 1047.34 1414.60
  C 1055.29 1411.33 1067.16 1405.09 1073.43 1402.36
  Q 1080.04 1399.48 1092.63 1392.49
  Q 1101.67 1387.47 1113.06 1381.32
  Q 1117.20 1379.09 1129.11 1371.54
  C 1134.54 1368.11 1140.46 1365.10 1146.17 1361.25
  C 1156.81 1354.08 1170.08 1345.45 1181.77 1336.62
  Q 1203.92 1319.89 1206.40 1317.90
  Q 1267.64 1268.71 1317.30 1208.13
  C 1321.49 1203.02 1324.72 1197.85 1328.73 1193.34
  Q 1332.53 1189.06 1337.41 1182.34
  Q 1357.29 1154.91 1368.36 1137.13
  Q 1372.20 1130.97 1381.12 1115.84
  C 1385.82 1107.86 1389.24 1100.73 1393.51 1093.51
  Q 1396.76 1088.01 1402.41 1076.58
  Q 1415.65 1049.82 1426.73 1023.42
  Q 1431.05 1013.11 1435.74 999.84
  Q 1442.82 979.82 1443.99 975.99
  Q 1451.65 951.02 1459.99 918.50
  Q 1463.43 905.08 1467.26 884.01
  Q 1472.17 856.94 1475.19 831.75
  Q 1482.23 773.04 1478.71 716.26
  Q 1475.04 656.79 1462.86 598.69
  Q 1460.19 585.91 1455.35 568.19
  Q 1448.99 544.89 1446.76 538.00
  C 1439.23 514.65 1430.41 489.08 1419.56 464.89
  Q 1399.56 420.29 1380.61 388.38
  Q 1364.57 361.37 1353.11 344.63
  Q 1345.69 333.80 1330.28 313.42
  Q 1317.76 296.87 1305.98 283.36
  Q 1279.16 252.60 1258.37 232.86
  Q 1227.14 203.22 1203.46 184.32
  Q 1175.33 161.88 1142.36 140.65
  Q 1098.43 112.36 1051.14 90.90
  Q 1042.33 86.91 1037.23 84.86
  C 1024.94 79.93 1013.78 74.79 1001.99 70.61
  Q 946.97 51.15 897.09 40.95
  Q 847.02 30.72 800.24 28.14
  Q 765.40 26.22 735.75 27.00
  Q 692.38 28.15 648.50 34.46
  Q 615.13 39.26 584.68 46.89
  Q 551.35 55.25 527.08 63.33
  Q 522.65 64.81 497.21 74.12
  C 487.85 77.55 478.19 82.42 469.13 85.84
  C 457.36 90.28 447.71 95.51 435.13 101.32
  Q 429.48 103.93 421.38 108.28
  Q 393.10 123.45 365.25 141.27
  C 363.10 142.64 360.71 144.67 358.84 145.85
  Q 340.29 157.52 329.10 166.10
  C 314.91 176.97 299.91 188.01 286.99 199.23
  Q 275.62 209.12 267.38 216.63
  Z"
/>
<path fill="#a855f7" d="
  M 267.38 216.63
  Q 275.62 209.12 286.99 199.23
  C 299.91 188.01 314.91 176.97 329.10 166.10
  Q 340.29 157.52 358.84 145.85
  C 360.71 144.67 363.10 142.64 365.25 141.27
  Q 393.10 123.45 421.38 108.28
  Q 429.48 103.93 435.13 101.32
  C 447.71 95.51 457.36 90.28 469.13 85.84
  C 478.19 82.42 487.85 77.55 497.21 74.12
  Q 522.65 64.81 527.08 63.33
  Q 551.35 55.25 584.68 46.89
  Q 615.13 39.26 648.50 34.46
  Q 692.38 28.15 735.75 27.00
  Q 765.40 26.22 800.24 28.14
  Q 847.02 30.72 897.09 40.95
  Q 946.97 51.15 1001.99 70.61
  C 1013.78 74.79 1024.94 79.93 1037.23 84.86
  Q 1042.33 86.91 1051.14 90.90
  Q 1098.43 112.36 1142.36 140.65
  Q 1175.33 161.88 1203.46 184.32
  Q 1227.14 203.22 1258.37 232.86
  Q 1279.16 252.60 1305.98 283.36
  Q 1317.76 296.87 1330.28 313.42
  Q 1345.69 333.80 1353.11 344.63
  Q 1364.57 361.37 1380.61 388.38
  Q 1399.56 420.29 1419.56 464.89
  C 1430.41 489.08 1439.23 514.65 1446.76 538.00
  Q 1448.99 544.89 1455.35 568.19
  Q 1460.19 585.91 1462.86 598.69
  Q 1475.04 656.79 1478.71 716.26
  Q 1482.23 773.04 1475.19 831.75
  Q 1472.17 856.94 1467.26 884.01
  Q 1463.43 905.08 1459.99 918.50
  Q 1451.65 951.02 1443.99 975.99
  Q 1442.82 979.82 1435.74 999.84
  Q 1431.05 1013.11 1426.73 1023.42
  Q 1415.65 1049.82 1402.41 1076.58
  Q 1396.76 1088.01 1393.51 1093.51
  C 1389.24 1100.73 1385.82 1107.86 1381.12 1115.84
  Q 1372.20 1130.97 1368.36 1137.13
  Q 1357.29 1154.91 1337.41 1182.34
  Q 1332.53 1189.06 1328.73 1193.34
  C 1324.72 1197.85 1321.49 1203.02 1317.30 1208.13
  Q 1267.64 1268.71 1206.40 1317.90
  Q 1203.92 1319.89 1181.77 1336.62
  C 1170.08 1345.45 1156.81 1354.08 1146.17 1361.25
  C 1140.46 1365.10 1134.54 1368.11 1129.11 1371.54
  Q 1117.20 1379.09 1113.06 1381.32
  Q 1101.67 1387.47 1092.63 1392.49
  Q 1080.04 1399.48 1073.43 1402.36
  C 1067.16 1405.09 1055.29 1411.33 1047.34 1414.60
  Q 1046.53 1414.93 1031.16 1421.59
  Q 1023.42 1424.94 1014.85 1428.24
  Q 988.47 1438.39 961.64 1446.65
  Q 955.14 1448.66 923.33 1456.91
  C 894.74 1464.34 864.65 1469.48 838.47 1472.60
  Q 788.44 1478.58 738.50 1477.19
  Q 724.60 1476.81 697.78 1475.08
  C 691.49 1474.67 684.55 1473.57 677.98 1473.15
  Q 673.86 1472.89 670.06 1472.33
  Q 641.82 1468.17 633.94 1466.84
  Q 585.82 1458.73 537.69 1443.86
  C 526.55 1440.43 513.73 1435.66 499.39 1430.35
  Q 475.99 1421.68 456.45 1412.37
  Q 451.94 1410.22 432.03 1400.72
  Q 421.93 1395.90 416.44 1392.73
  C 409.62 1388.79 402.80 1385.53 395.97 1381.61
  Q 347.30 1353.65 304.65 1320.10
  Q 289.44 1308.13 269.88 1290.63
  Q 217.26 1243.56 173.89 1186.14
  Q 161.26 1169.42 150.06 1152.32
  Q 136.89 1132.22 128.06 1117.21
  Q 126.69 1114.88 110.89 1085.88
  Q 105.63 1076.22 101.18 1066.71
  C 96.02 1055.65 93.91 1051.54 89.10 1040.68
  Q 66.83 990.34 51.55 930.92
  C 34.13 863.12 25.77 793.86 29.06 724.25
  Q 30.04 703.44 31.04 691.75
  C 32.46 675.02 34.67 660.76 36.81 645.10
  Q 39.57 624.87 44.76 600.69
  C 47.61 587.38 51.11 575.19 54.63 561.13
  C 57.22 550.76 61.35 536.51 65.98 523.81
  C 69.59 513.91 74.95 496.73 80.39 484.12
  C 85.90 471.32 92.03 455.97 98.69 443.02
  C 102.73 435.19 106.59 426.33 111.52 417.29
  Q 121.77 398.53 124.17 394.17
  C 129.00 385.37 134.55 377.65 139.31 369.08
  Q 141.31 365.48 145.53 359.14
  Q 158.00 340.42 172.77 320.53
  Q 176.59 315.39 178.72 312.88
  C 184.01 306.65 189.01 299.44 193.65 294.08
  C 197.80 289.29 201.19 284.64 206.00 279.50
  C 211.26 273.89 218.07 265.67 224.77 258.60
  Q 246.77 235.40 267.38 216.63
  Z
  M 785.86 100.13
  Q 761.86 99.30 742.26 99.53
  Q 687.46 100.17 631.68 110.27
  C 620.66 112.27 608.83 115.51 598.94 117.75
  Q 587.01 120.44 574.58 124.16
  Q 546.96 132.41 531.14 138.16
  Q 521.15 141.78 518.14 143.14
  C 508.61 147.42 497.83 151.52 488.40 155.81
  Q 488.23 155.89 468.29 165.40
  Q 457.15 170.72 448.48 175.57
  Q 429.93 185.94 425.55 188.56
  Q 392.62 208.23 358.55 234.07
  Q 354.85 236.88 347.77 242.77
  Q 344.37 245.60 337.05 251.57
  Q 324.99 261.40 304.62 280.62
  Q 279.47 304.34 257.71 329.80
  C 252.34 336.08 248.44 341.49 243.59 347.27
  Q 239.61 352.03 233.27 360.57
  Q 225.01 371.71 220.31 378.22
  Q 218.02 381.39 216.82 383.37
  C 214.01 388.00 210.57 392.02 207.95 396.17
  Q 195.09 416.57 192.16 421.44
  Q 189.38 426.06 176.20 449.88
  Q 171.08 459.14 167.58 466.73
  C 164.08 474.34 157.65 486.52 153.48 496.87
  Q 150.46 504.36 147.94 510.13
  Q 144.12 518.87 140.15 530.16
  Q 122.81 579.52 113.89 624.04
  Q 104.74 669.71 101.70 733.00
  Q 100.72 753.25 101.71 773.25
  C 103.39 807.48 106.04 840.70 112.23 871.82
  Q 116.11 891.30 121.58 913.97
  Q 124.88 927.62 129.14 940.87
  Q 141.13 978.23 155.64 1012.13
  C 159.13 1020.29 164.61 1030.88 169.32 1040.93
  Q 170.32 1043.06 175.06 1052.26
  Q 182.65 1067.03 187.25 1074.89
  Q 204.72 1104.72 218.52 1124.10
  C 230.12 1140.40 241.23 1154.01 252.32 1168.09
  C 255.82 1172.54 259.63 1176.37 262.82 1180.27
  Q 267.18 1185.62 270.50 1189.26
  Q 297.27 1218.59 327.33 1244.54
  C 335.79 1251.84 343.63 1257.90 353.03 1265.50
  Q 365.54 1275.60 384.04 1288.68
  Q 393.51 1295.38 405.88 1302.91
  C 425.16 1314.66 437.32 1321.60 457.40 1332.58
  C 462.35 1335.29 466.80 1337.08 471.43 1339.50
  Q 476.09 1341.93 481.96 1344.58
  Q 509.28 1356.91 529.51 1364.42
  Q 569.26 1379.18 618.36 1390.37
  Q 632.57 1393.61 648.76 1396.18
  Q 690.88 1402.88 732.49 1404.59
  Q 784.25 1406.73 835.16 1399.92
  Q 851.23 1397.77 851.58 1397.74
  Q 856.91 1397.17 867.93 1395.09
  Q 891.67 1390.61 918.01 1383.76
  C 961.95 1372.33 1005.46 1355.20 1046.28 1335.26
  Q 1052.00 1332.47 1057.17 1329.63
  Q 1085.33 1314.19 1113.54 1296.02
  Q 1124.84 1288.74 1151.10 1269.14
  C 1157.00 1264.73 1161.86 1260.27 1167.86 1255.65
  Q 1173.21 1251.53 1180.33 1245.45
  Q 1209.47 1220.59 1234.75 1192.96
  C 1239.33 1187.95 1243.81 1182.21 1247.74 1178.15
  Q 1251.13 1174.66 1257.12 1166.77
  Q 1258.27 1165.26 1268.88 1152.13
  Q 1285.15 1132.00 1301.58 1106.60
  C 1305.35 1100.78 1308.86 1093.92 1312.96 1088.21
  Q 1315.31 1084.92 1321.79 1073.30
  Q 1336.12 1047.56 1340.70 1037.08
  Q 1342.56 1032.83 1346.48 1025.58
  Q 1348.57 1021.72 1351.87 1013.87
  Q 1358.57 997.94 1359.60 995.58
  C 1366.08 980.76 1369.29 969.78 1375.83 950.41
  C 1383.17 928.71 1387.95 907.68 1393.29 884.70
  Q 1396.08 872.68 1397.90 860.95
  Q 1401.27 839.15 1403.96 811.76
  Q 1407.33 777.36 1406.53 744.52
  Q 1405.56 704.98 1399.59 655.44
  C 1396.83 632.51 1390.10 604.89 1386.11 588.89
  C 1381.60 570.81 1376.30 555.01 1369.39 534.34
  Q 1365.48 522.66 1361.27 512.27
  Q 1349.46 483.11 1333.50 451.85
  C 1329.91 444.84 1325.92 438.33 1321.06 429.67
  Q 1314.33 417.68 1299.61 395.39
  Q 1299.40 395.06 1286.95 377.28
  Q 1271.53 355.25 1251.74 331.52
  Q 1219.72 293.13 1174.55 254.29
  Q 1131.18 217.01 1081.22 187.70
  C 1075.37 184.27 1070.29 181.90 1064.59 178.40
  Q 1059.88 175.50 1053.34 172.18
  Q 1037.96 164.36 1025.28 158.36
  C 1014.80 153.40 1005.36 149.76 995.22 145.35
  Q 983.75 140.36 972.33 136.43
  Q 939.71 125.22 920.95 120.60
  Q 892.90 113.68 882.66 111.63
  Q 834.93 102.09 785.58 100.45
  A 0.19 0.19 0.0 0 1 785.57 100.07
  Q 785.71 100.06 785.86 100.13
  Z"
/>
<path fill="none" d="
  M 785.86 100.13
  Q 785.71 100.06 785.57 100.07
  A 0.19 0.19 0.0 0 0 785.58 100.45
  Q 834.93 102.09 882.66 111.63
  Q 892.90 113.68 920.95 120.60
  Q 939.71 125.22 972.33 136.43
  Q 983.75 140.36 995.22 145.35
  C 1005.36 149.76 1014.80 153.40 1025.28 158.36
  Q 1037.96 164.36 1053.34 172.18
  Q 1059.88 175.50 1064.59 178.40
  C 1070.29 181.90 1075.37 184.27 1081.22 187.70
  Q 1131.18 217.01 1174.55 254.29
  Q 1219.72 293.13 1251.74 331.52
  Q 1271.53 355.25 1286.95 377.28
  Q 1299.40 395.06 1299.61 395.39
  Q 1314.33 417.68 1321.06 429.67
  C 1325.92 438.33 1329.91 444.84 1333.50 451.85
  Q 1349.46 483.11 1361.27 512.27
  Q 1365.48 522.66 1369.39 534.34
  C 1376.30 555.01 1381.60 570.81 1386.11 588.89
  C 1390.10 604.89 1396.83 632.51 1399.59 655.44
  Q 1405.56 704.98 1406.53 744.52
  Q 1407.33 777.36 1403.96 811.76
  Q 1401.27 839.15 1397.90 860.95
  Q 1396.08 872.68 1393.29 884.70
  C 1387.95 907.68 1383.17 928.71 1375.83 950.41
  C 1369.29 969.78 1366.08 980.76 1359.60 995.58
  Q 1358.57 997.94 1351.87 1013.87
  Q 1348.57 1021.72 1346.48 1025.58
  Q 1342.56 1032.83 1340.70 1037.08
  Q 1336.12 1047.56 1321.79 1073.30
  Q 1315.31 1084.92 1312.96 1088.21
  C 1308.86 1093.92 1305.35 1100.78 1301.58 1106.60
  Q 1285.15 1132.00 1268.88 1152.13
  Q 1258.27 1165.26 1257.12 1166.77
  Q 1251.13 1174.66 1247.74 1178.15
  C 1243.81 1182.21 1239.33 1187.95 1234.75 1192.96
  Q 1209.47 1220.59 1180.33 1245.45
  Q 1173.21 1251.53 1167.86 1255.65
  C 1161.86 1260.27 1157.00 1264.73 1151.10 1269.14
  Q 1124.84 1288.74 1113.54 1296.02
  Q 1085.33 1314.19 1057.17 1329.63
  Q 1052.00 1332.47 1046.28 1335.26
  C 1005.46 1355.20 961.95 1372.33 918.01 1383.76
  Q 891.67 1390.61 867.93 1395.09
  Q 856.91 1397.17 851.58 1397.74
  Q 851.23 1397.77 835.16 1399.92
  Q 784.25 1406.73 732.49 1404.59
  Q 690.88 1402.88 648.76 1396.18
  Q 632.57 1393.61 618.36 1390.37
  Q 569.26 1379.18 529.51 1364.42
  Q 509.28 1356.91 481.96 1344.58
  Q 476.09 1341.93 471.43 1339.50
  C 466.80 1337.08 462.35 1335.29 457.40 1332.58
  C 437.32 1321.60 425.16 1314.66 405.88 1302.91
  Q 393.51 1295.38 384.04 1288.68
  Q 365.54 1275.60 353.03 1265.50
  C 343.63 1257.90 335.79 1251.84 327.33 1244.54
  Q 297.27 1218.59 270.50 1189.26
  Q 267.18 1185.62 262.82 1180.27
  C 259.63 1176.37 255.82 1172.54 252.32 1168.09
  C 241.23 1154.01 230.12 1140.40 218.52 1124.10
  Q 204.72 1104.72 187.25 1074.89
  Q 182.65 1067.03 175.06 1052.26
  Q 170.32 1043.06 169.32 1040.93
  C 164.61 1030.88 159.13 1020.29 155.64 1012.13
  Q 141.13 978.23 129.14 940.87
  Q 124.88 927.62 121.58 913.97
  Q 116.11 891.30 112.23 871.82
  C 106.04 840.70 103.39 807.48 101.71 773.25
  Q 100.72 753.25 101.70 733.00
  Q 104.74 669.71 113.89 624.04
  Q 122.81 579.52 140.15 530.16
  Q 144.12 518.87 147.94 510.13
  Q 150.46 504.36 153.48 496.87
  C 157.65 486.52 164.08 474.34 167.58 466.73
  Q 171.08 459.14 176.20 449.88
  Q 189.38 426.06 192.16 421.44
  Q 195.09 416.57 207.95 396.17
  C 210.57 392.02 214.01 388.00 216.82 383.37
  Q 218.02 381.39 220.31 378.22
  Q 225.01 371.71 233.27 360.57
  Q 239.61 352.03 243.59 347.27
  C 248.44 341.49 252.34 336.08 257.71 329.80
  Q 279.47 304.34 304.62 280.62
  Q 324.99 261.40 337.05 251.57
  Q 344.37 245.60 347.77 242.77
  Q 354.85 236.88 358.55 234.07
  Q 392.62 208.23 425.55 188.56
  Q 429.93 185.94 448.48 175.57
  Q 457.15 170.72 468.29 165.40
  Q 488.23 155.89 488.40 155.81
  C 497.83 151.52 508.61 147.42 518.14 143.14
  Q 521.15 141.78 531.14 138.16
  Q 546.96 132.41 574.58 124.16
  Q 587.01 120.44 598.94 117.75
  C 608.83 115.51 620.66 112.27 631.68 110.27
  Q 687.46 100.17 742.26 99.53
  Q 761.86 99.30 785.86 100.13
  Z
  M 419.95 735.60
  C 412.58 740.50 406.40 745.58 397.60 753.02
  C 380.91 767.12 366.94 783.64 355.45 802.51
  Q 348.50 813.92 344.09 825.01
  C 338.61 838.79 333.29 853.13 330.20 868.45
  Q 321.69 910.69 323.89 954.24
  Q 325.54 986.79 332.27 1013.86
  Q 338.79 1040.12 349.57 1061.30
  Q 358.60 1079.05 373.93 1096.59
  Q 384.81 1109.02 392.47 1115.63
  C 398.67 1120.98 405.76 1125.77 414.79 1131.79
  Q 425.26 1138.77 431.80 1141.44
  C 442.38 1145.76 448.57 1148.49 458.16 1151.50
  Q 492.63 1162.30 528.53 1164.92
  Q 543.39 1166.01 563.26 1166.30
  Q 607.17 1166.93 642.25 1166.26
  Q 662.48 1165.87 683.23 1161.00
  C 698.56 1157.41 713.09 1149.30 724.87 1140.11
  Q 728.55 1137.24 731.31 1133.83
  Q 732.41 1132.47 732.45 1130.03
  Q 732.85 1100.80 732.83 1088.00
  Q 732.66 965.91 732.69 381.54
  C 732.69 377.61 733.31 373.27 730.55 370.46
  Q 719.50 359.19 705.09 352.18
  Q 691.21 345.42 677.26 342.44
  Q 653.52 337.38 624.24 337.29
  C 596.69 337.22 569.73 338.44 543.00 342.52
  Q 509.34 347.66 480.89 362.35
  Q 478.80 363.43 465.65 371.93
  Q 460.25 375.42 454.83 380.15
  Q 445.95 387.89 444.68 389.18
  Q 429.26 404.81 417.81 423.63
  C 408.73 438.56 401.81 456.15 396.97 472.70
  Q 381.45 525.83 382.12 581.25
  Q 382.64 623.90 391.81 663.24
  Q 394.75 675.86 397.60 684.36
  C 403.45 701.81 410.30 718.66 420.28 734.04
  A 1.13 1.13 0.0 0 1 419.95 735.60
  Z
  M 1088.42 733.76
  C 1099.39 716.00 1108.64 695.60 1113.68 675.62
  C 1117.89 658.94 1121.27 641.53 1123.60 622.73
  Q 1127.60 590.34 1125.57 557.47
  Q 1124.36 537.98 1123.30 530.13
  Q 1119.32 500.76 1111.10 472.59
  Q 1104.12 448.67 1093.41 428.80
  Q 1078.71 401.50 1053.78 379.98
  Q 1048.82 375.68 1041.62 370.90
  Q 1032.46 364.82 1028.69 362.84
  Q 1001.41 348.46 970.91 343.15
  Q 956.29 340.61 948.38 339.87
  Q 910.96 336.37 874.25 337.57
  Q 863.31 337.92 841.60 340.82
  Q 810.41 344.97 786.15 362.86
  C 783.60 364.74 776.09 370.36 775.89 373.89
  Q 775.60 379.09 775.60 381.75
  C 776.09 618.91 775.65 865.16 775.72 1077.25
  Q 775.74 1110.28 776.09 1129.25
  C 776.14 1131.89 776.89 1132.97 778.72 1134.87
  C 785.76 1142.21 795.98 1148.55 804.21 1152.83
  Q 812.18 1156.97 822.84 1159.94
  Q 843.28 1165.64 862.50 1166.13
  Q 889.32 1166.81 927.69 1166.64
  Q 953.92 1166.52 977.75 1165.09
  Q 1015.70 1162.80 1051.68 1151.24
  Q 1058.39 1149.08 1065.12 1146.36
  Q 1074.60 1142.53 1078.28 1140.77
  Q 1094.52 1133.03 1110.33 1120.34
  Q 1136.07 1099.68 1153.09 1071.72
  Q 1160.85 1058.99 1167.08 1042.76
  Q 1173.66 1025.64 1176.77 1012.05
  C 1183.09 984.50 1185.16 957.34 1184.71 929.77
  Q 1184.27 903.05 1179.32 875.41
  Q 1176.42 859.20 1171.33 843.90
  Q 1166.23 828.61 1159.25 813.74
  Q 1153.56 801.61 1143.35 787.95
  C 1134.53 776.14 1126.40 766.54 1116.27 757.73
  Q 1102.61 745.84 1088.79 735.66
  A 1.43 1.43 0.0 0 1 1088.42 733.76
  Z"
/>
<path fill="#a855f7" d="
  M 419.95 735.60
  A 1.13 1.13 0.0 0 0 420.28 734.04
  C 410.30 718.66 403.45 701.81 397.60 684.36
  Q 394.75 675.86 391.81 663.24
  Q 382.64 623.90 382.12 581.25
  Q 381.45 525.83 396.97 472.70
  C 401.81 456.15 408.73 438.56 417.81 423.63
  Q 429.26 404.81 444.68 389.18
  Q 445.95 387.89 454.83 380.15
  Q 460.25 375.42 465.65 371.93
  Q 478.80 363.43 480.89 362.35
  Q 509.34 347.66 543.00 342.52
  C 569.73 338.44 596.69 337.22 624.24 337.29
  Q 653.52 337.38 677.26 342.44
  Q 691.21 345.42 705.09 352.18
  Q 719.50 359.19 730.55 370.46
  C 733.31 373.27 732.69 377.61 732.69 381.54
  Q 732.66 965.91 732.83 1088.00
  Q 732.85 1100.80 732.45 1130.03
  Q 732.41 1132.47 731.31 1133.83
  Q 728.55 1137.24 724.87 1140.11
  C 713.09 1149.30 698.56 1157.41 683.23 1161.00
  Q 662.48 1165.87 642.25 1166.26
  Q 607.17 1166.93 563.26 1166.30
  Q 543.39 1166.01 528.53 1164.92
  Q 492.63 1162.30 458.16 1151.50
  C 448.57 1148.49 442.38 1145.76 431.80 1141.44
  Q 425.26 1138.77 414.79 1131.79
  C 405.76 1125.77 398.67 1120.98 392.47 1115.63
  Q 384.81 1109.02 373.93 1096.59
  Q 358.60 1079.05 349.57 1061.30
  Q 338.79 1040.12 332.27 1013.86
  Q 325.54 986.79 323.89 954.24
  Q 321.69 910.69 330.20 868.45
  C 333.29 853.13 338.61 838.79 344.09 825.01
  Q 348.50 813.92 355.45 802.51
  C 366.94 783.64 380.91 767.12 397.60 753.02
  C 406.40 745.58 412.58 740.50 419.95 735.60
  Z
  M 671.90 726.15
  A 0.49 0.49 0.0 0 0 672.39 725.66
  Q 672.49 571.93 672.29 452.25
  Q 672.28 444.29 668.79 435.24
  C 666.66 429.73 662.59 425.86 657.44 424.05
  Q 648.35 420.85 638.49 420.84
  Q 601.89 420.78 592.63 420.65
  C 573.68 420.39 557.38 421.45 541.45 425.20
  C 526.65 428.68 511.19 438.19 501.40 450.91
  Q 495.39 458.72 492.24 466.02
  C 486.02 480.47 482.36 495.56 479.87 512.06
  Q 477.65 526.82 476.77 535.25
  C 473.36 567.82 473.71 600.54 478.17 633.04
  Q 481.43 656.75 489.34 679.44
  Q 494.00 692.82 503.74 704.00
  C 509.08 710.12 514.84 713.61 522.17 717.29
  Q 527.80 720.12 533.27 721.61
  Q 546.00 725.07 554.37 725.59
  C 566.09 726.31 589.78 725.67 607.56 726.21
  C 621.50 726.63 635.38 725.97 648.55 726.09
  Q 658.72 726.18 671.90 726.15
  Z
  M 424.34 912.94
  Q 423.64 924.73 423.39 931.23
  Q 422.15 963.55 428.08 993.70
  C 433.61 1021.80 446.23 1046.31 469.87 1062.92
  C 483.19 1072.28 498.65 1077.50 515.02 1080.16
  Q 517.42 1080.55 529.96 1082.07
  C 540.24 1083.32 554.11 1083.26 562.00 1083.25
  Q 630.74 1083.16 642.50 1083.10
  Q 649.62 1083.07 657.33 1080.34
  Q 665.34 1077.50 668.45 1069.69
  C 672.50 1059.47 672.40 1050.65 672.40 1037.11
  Q 672.46 875.20 672.46 799.75
  Q 672.46 779.59 672.45 779.21
  A 0.65 0.65 0.0 0 0 671.92 778.57
  Q 670.28 778.25 668.00 778.27
  Q 634.42 778.57 560.75 778.34
  Q 542.22 778.28 522.98 781.42
  C 515.12 782.70 505.04 785.46 498.70 787.70
  Q 480.58 794.09 465.69 806.48
  C 452.33 817.60 442.26 833.90 436.60 849.84
  C 432.86 860.38 429.36 872.43 427.71 884.30
  Q 426.89 890.17 425.92 896.57
  Q 425.12 901.86 424.58 914.59
  A 0.01 0.01 0.0 0 1 424.56 914.59
  Q 424.55 914.57 424.54 914.56
  A 0.16 0.08 46.7 0 1 424.50 914.43
  Q 424.74 913.63 424.55 912.92
  A 0.11 0.11 0.0 0 0 424.34 912.94
  Z"
/>
<path fill="#a855f7" d="
  M 1088.42 733.76
  A 1.43 1.43 0.0 0 0 1088.79 735.66
  Q 1102.61 745.84 1116.27 757.73
  C 1126.40 766.54 1134.53 776.14 1143.35 787.95
  Q 1153.56 801.61 1159.25 813.74
  Q 1166.23 828.61 1171.33 843.90
  Q 1176.42 859.20 1179.32 875.41
  Q 1184.27 903.05 1184.71 929.77
  C 1185.16 957.34 1183.09 984.50 1176.77 1012.05
  Q 1173.66 1025.64 1167.08 1042.76
  Q 1160.85 1058.99 1153.09 1071.72
  Q 1136.07 1099.68 1110.33 1120.34
  Q 1094.52 1133.03 1078.28 1140.77
  Q 1074.60 1142.53 1065.12 1146.36
  Q 1058.39 1149.08 1051.68 1151.24
  Q 1015.70 1162.80 977.75 1165.09
  Q 953.92 1166.52 927.69 1166.64
  Q 889.32 1166.81 862.50 1166.13
  Q 843.28 1165.64 822.84 1159.94
  Q 812.18 1156.97 804.21 1152.83
  C 795.98 1148.55 785.76 1142.21 778.72 1134.87
  C 776.89 1132.97 776.14 1131.89 776.09 1129.25
  Q 775.74 1110.28 775.72 1077.25
  C 775.65 865.16 776.09 618.91 775.60 381.75
  Q 775.60 379.09 775.89 373.89
  C 776.09 370.36 783.60 364.74 786.15 362.86
  Q 810.41 344.97 841.60 340.82
  Q 863.31 337.92 874.25 337.57
  Q 910.96 336.37 948.38 339.87
  Q 956.29 340.61 970.91 343.15
  Q 1001.41 348.46 1028.69 362.84
  Q 1032.46 364.82 1041.62 370.90
  Q 1048.82 375.68 1053.78 379.98
  Q 1078.71 401.50 1093.41 428.80
  Q 1104.12 448.67 1111.10 472.59
  Q 1119.32 500.76 1123.30 530.13
  Q 1124.36 537.98 1125.57 557.47
  Q 1127.60 590.34 1123.60 622.73
  C 1121.27 641.53 1117.89 658.94 1113.68 675.62
  C 1108.64 695.60 1099.39 716.00 1088.42 733.76
  Z
  M 1033.25 597.52
  Q 1035.73 550.24 1027.56 504.57
  Q 1024.65 488.24 1019.18 473.08
  Q 1014.37 459.75 1006.07 449.61
  Q 997.73 439.43 987.04 433.19
  Q 976.05 426.77 963.49 424.31
  Q 945.60 420.81 931.99 420.86
  Q 893.22 420.99 869.76 420.84
  Q 859.45 420.77 850.22 424.70
  C 842.87 427.83 839.59 433.86 837.60 441.31
  C 835.42 449.46 835.68 455.05 835.67 465.29
  Q 835.65 519.66 835.70 725.13
  A 0.77 0.76 -89.6 0 0 836.45 725.90
  C 848.68 726.13 860.36 725.75 873.11 726.00
  Q 900.51 726.53 922.46 726.10
  Q 932.28 725.90 939.05 725.89
  Q 952.67 725.87 955.63 725.60
  Q 967.87 724.48 980.92 720.12
  C 990.27 716.99 1000.07 710.06 1006.80 701.47
  Q 1012.74 693.88 1014.05 691.30
  Q 1018.01 683.50 1019.71 678.72
  Q 1026.93 658.39 1029.43 637.21
  C 1030.70 626.41 1032.27 615.63 1032.72 606.34
  Q 1032.94 601.89 1033.09 600.17
  Q 1033.14 599.70 1033.25 597.52
  Z
  M 1083.14 908.01
  C 1081.80 887.77 1078.38 867.32 1071.42 848.57
  C 1061.55 821.98 1041.96 799.94 1015.09 789.69
  C 992.99 781.27 969.48 778.33 946.23 778.38
  Q 874.30 778.52 835.89 778.36
  A 0.43 0.42 -0.7 0 0 835.46 778.79
  Q 835.60 794.95 835.61 796.25
  Q 835.73 996.62 835.85 1049.73
  Q 835.87 1058.62 839.81 1068.39
  C 842.32 1074.61 845.47 1077.48 851.39 1079.95
  Q 858.74 1083.01 866.23 1083.11
  Q 900.51 1083.57 948.00 1083.21
  Q 957.86 1083.14 964.85 1082.80
  C 976.39 1082.24 986.79 1081.53 995.32 1080.09
  Q 1003.56 1078.70 1014.13 1075.35
  Q 1027.82 1071.01 1038.97 1062.66
  C 1051.27 1053.46 1060.21 1044.53 1067.17 1031.34
  Q 1077.25 1012.22 1080.66 991.74
  Q 1087.50 950.73 1083.37 908.19
  A 0.06 0.06 0.0 0 0 1083.31 908.13
  Q 1083.30 908.13 1083.26 908.14
  A 0.13 0.09 81.4 0 1 1083.14 908.01
  Z"
/>
<path fill="none" d="
  M 671.90 726.15
  Q 658.72 726.18 648.55 726.09
  C 635.38 725.97 621.50 726.63 607.56 726.21
  C 589.78 725.67 566.09 726.31 554.37 725.59
  Q 546.00 725.07 533.27 721.61
  Q 527.80 720.12 522.17 717.29
  C 514.84 713.61 509.08 710.12 503.74 704.00
  Q 494.00 692.82 489.34 679.44
  Q 481.43 656.75 478.17 633.04
  C 473.71 600.54 473.36 567.82 476.77 535.25
  Q 477.65 526.82 479.87 512.06
  C 482.36 495.56 486.02 480.47 492.24 466.02
  Q 495.39 458.72 501.40 450.91
  C 511.19 438.19 526.65 428.68 541.45 425.20
  C 557.38 421.45 573.68 420.39 592.63 420.65
  Q 601.89 420.78 638.49 420.84
  Q 648.35 420.85 657.44 424.05
  C 662.59 425.86 666.66 429.73 668.79 435.24
  Q 672.28 444.29 672.29 452.25
  Q 672.49 571.93 672.39 725.66
  A 0.49 0.49 0.0 0 1 671.90 726.15
  Z"
/>
<path fill="none" d="
  M 1033.25 597.52
  Q 1033.14 599.70 1033.09 600.17
  Q 1032.94 601.89 1032.72 606.34
  C 1032.27 615.63 1030.70 626.41 1029.43 637.21
  Q 1026.93 658.39 1019.71 678.72
  Q 1018.01 683.50 1014.05 691.30
  Q 1012.74 693.88 1006.80 701.47
  C 1000.07 710.06 990.27 716.99 980.92 720.12
  Q 967.87 724.48 955.63 725.60
  Q 952.67 725.87 939.05 725.89
  Q 932.28 725.90 922.46 726.10
  Q 900.51 726.53 873.11 726.00
  C 860.36 725.75 848.68 726.13 836.45 725.90
  A 0.77 0.76 -89.6 0 1 835.70 725.13
  Q 835.65 519.66 835.67 465.29
  C 835.68 455.05 835.42 449.46 837.60 441.31
  C 839.59 433.86 842.87 427.83 850.22 424.70
  Q 859.45 420.77 869.76 420.84
  Q 893.22 420.99 931.99 420.86
  Q 945.60 420.81 963.49 424.31
  Q 976.05 426.77 987.04 433.19
  Q 997.73 439.43 1006.07 449.61
  Q 1014.37 459.75 1019.18 473.08
  Q 1024.65 488.24 1027.56 504.57
  Q 1035.73 550.24 1033.25 597.52
  Z"
/>
<path fill="none" d="
  M 424.55 912.92
  Q 424.74 913.63 424.50 914.43
  A 0.16 0.08 46.7 0 0 424.54 914.56
  Q 424.55 914.57 424.56 914.59
  A 0.01 0.01 0.0 0 0 424.58 914.59
  Q 425.12 901.86 425.92 896.57
  Q 426.89 890.17 427.71 884.30
  C 429.36 872.43 432.86 860.38 436.60 849.84
  C 442.26 833.90 452.33 817.60 465.69 806.48
  Q 480.58 794.09 498.70 787.70
  C 505.04 785.46 515.12 782.70 522.98 781.42
  Q 542.22 778.28 560.75 778.34
  Q 634.42 778.57 668.00 778.27
  Q 670.28 778.25 671.92 778.57
  A 0.65 0.65 0.0 0 1 672.45 779.21
  Q 672.46 779.59 672.46 799.75
  Q 672.46 875.20 672.40 1037.11
  C 672.40 1050.65 672.50 1059.47 668.45 1069.69
  Q 665.34 1077.50 657.33 1080.34
  Q 649.62 1083.07 642.50 1083.10
  Q 630.74 1083.16 562.00 1083.25
  C 554.11 1083.26 540.24 1083.32 529.96 1082.07
  Q 517.42 1080.55 515.02 1080.16
  C 498.65 1077.50 483.19 1072.28 469.87 1062.92
  C 446.23 1046.31 433.61 1021.80 428.08 993.70
  Q 422.15 963.55 423.39 931.23
  Q 423.64 924.73 424.34 912.94
  A 0.11 0.11 0.0 0 1 424.55 912.92
  Z"
/>
<path fill="none" d="
  M 1083.26 908.14
  Q 1083.30 908.13 1083.31 908.13
  A 0.06 0.06 0.0 0 1 1083.37 908.19
  Q 1087.50 950.73 1080.66 991.74
  Q 1077.25 1012.22 1067.17 1031.34
  C 1060.21 1044.53 1051.27 1053.46 1038.97 1062.66
  Q 1027.82 1071.01 1014.13 1075.35
  Q 1003.56 1078.70 995.32 1080.09
  C 986.79 1081.53 976.39 1082.24 964.85 1082.80
  Q 957.86 1083.14 948.00 1083.21
  Q 900.51 1083.57 866.23 1083.11
  Q 858.74 1083.01 851.39 1079.95
  C 845.47 1077.48 842.32 1074.61 839.81 1068.39
  Q 835.87 1058.62 835.85 1049.73
  Q 835.73 996.62 835.61 796.25
  Q 835.60 794.95 835.46 778.79
  A 0.43 0.42 -0.7 0 1 835.89 778.36
  Q 874.30 778.52 946.23 778.38
  C 969.48 778.33 992.99 781.27 1015.09 789.69
  C 1041.96 799.94 1061.55 821.98 1071.42 848.57
  C 1078.38 867.32 1081.80 887.77 1083.14 908.01
  A 0.13 0.09 81.4 0 0 1083.26 908.14
  Z"
/>
</svg>
